<svg xmlns="http://www.w3.org/2000/svg" width="960" height="420" viewBox="0 0 960 420" role="img" aria-label="Breakout game banner">
  
  <defs>
    <linearGradient id="g-breakout" x1="0" x2="1" y1="0" y2="1">
      <stop offset="0%" stop-color="#1e1b4b"/>
      <stop offset="58%" stop-color="#08111f"/>
      <stop offset="100%" stop-color="#ff4ad8"/>
    </linearGradient>
    <radialGradient id="pulse-breakout" cx="30%" cy="35%" r="55%">
      <stop offset="0%" stop-color="#ff4ad8" stop-opacity=".55"/>
      <stop offset="100%" stop-color="#ff4ad8" stop-opacity="0"/>
    </radialGradient>
    <filter id="glow-breakout" x="-60%" y="-60%" width="220%" height="220%">
      <feGaussianBlur stdDeviation="8" result="blur"/>
      <feMerge>
        <feMergeNode in="blur"/>
        <feMergeNode in="SourceGraphic"/>
      </feMerge>
    </filter>
  </defs>
  <rect width="960" height="420" fill="url(#g-breakout)"/>
  <rect width="960" height="420" fill="url(#pulse-breakout)"/>
  <g opacity=".16">
    <path d="M0 0V420" stroke="#fff"/><path d="M44 0V420" stroke="#fff"/><path d="M88 0V420" stroke="#fff"/><path d="M132 0V420" stroke="#fff"/><path d="M176 0V420" stroke="#fff"/><path d="M220 0V420" stroke="#fff"/><path d="M264 0V420" stroke="#fff"/><path d="M308 0V420" stroke="#fff"/><path d="M352 0V420" stroke="#fff"/><path d="M396 0V420" stroke="#fff"/><path d="M440 0V420" stroke="#fff"/><path d="M484 0V420" stroke="#fff"/><path d="M528 0V420" stroke="#fff"/><path d="M572 0V420" stroke="#fff"/><path d="M616 0V420" stroke="#fff"/><path d="M660 0V420" stroke="#fff"/><path d="M704 0V420" stroke="#fff"/><path d="M748 0V420" stroke="#fff"/><path d="M792 0V420" stroke="#fff"/><path d="M836 0V420" stroke="#fff"/><path d="M880 0V420" stroke="#fff"/><path d="M924 0V420" stroke="#fff"/><path d="M968 0V420" stroke="#fff"/><path d="M1012 0V420" stroke="#fff"/><path d="M1056 0V420" stroke="#fff"/>
    <path d="M0 0H960" stroke="#fff"/><path d="M0 42H960" stroke="#fff"/><path d="M0 84H960" stroke="#fff"/><path d="M0 126H960" stroke="#fff"/><path d="M0 168H960" stroke="#fff"/><path d="M0 210H960" stroke="#fff"/><path d="M0 252H960" stroke="#fff"/><path d="M0 294H960" stroke="#fff"/><path d="M0 336H960" stroke="#fff"/><path d="M0 378H960" stroke="#fff"/><path d="M0 420H960" stroke="#fff"/><path d="M0 462H960" stroke="#fff"/>
  </g>
  <g opacity=".22">
    <circle cx="110" cy="90" r="72" fill="#fff"/>
    <circle cx="850" cy="330" r="96" fill="#ff4ad8"/>
  </g>
  <g>
    <rect x="130" y="76" width="82" height="34" rx="8" fill="#fff" opacity="0.86" filter="url(#glow-breakout)"/><rect x="230" y="76" width="82" height="34" rx="8" fill="#ff4ad8" opacity="1" filter="url(#glow-breakout)"/><rect x="330" y="76" width="82" height="34" rx="8" fill="#fff" opacity="0.86" filter="url(#glow-breakout)"/><rect x="430" y="76" width="82" height="34" rx="8" fill="#ff4ad8" opacity="1" filter="url(#glow-breakout)"/><rect x="530" y="76" width="82" height="34" rx="8" fill="#fff" opacity="0.86" filter="url(#glow-breakout)"/><rect x="630" y="76" width="82" height="34" rx="8" fill="#ff4ad8" opacity="1" filter="url(#glow-breakout)"/><rect x="730" y="76" width="82" height="34" rx="8" fill="#fff" opacity="0.86" filter="url(#glow-breakout)"/><rect x="130" y="128" width="82" height="34" rx="8" fill="#ff4ad8" opacity="1" filter="url(#glow-breakout)"/><rect x="230" y="128" width="82" height="34" rx="8" fill="#fff" opacity="0.86" filter="url(#glow-breakout)"/><rect x="330" y="128" width="82" height="34" rx="8" fill="#ff4ad8" opacity="1" filter="url(#glow-breakout)"/><rect x="430" y="128" width="82" height="34" rx="8" fill="#fff" opacity="0.86" filter="url(#glow-breakout)"/><rect x="530" y="128" width="82" height="34" rx="8" fill="#ff4ad8" opacity="1" filter="url(#glow-breakout)"/><rect x="630" y="128" width="82" height="34" rx="8" fill="#fff" opacity="0.86" filter="url(#glow-breakout)"/><rect x="730" y="128" width="82" height="34" rx="8" fill="#ff4ad8" opacity="1" filter="url(#glow-breakout)"/><rect x="130" y="180" width="82" height="34" rx="8" fill="#fff" opacity="0.86" filter="url(#glow-breakout)"/><rect x="230" y="180" width="82" height="34" rx="8" fill="#ff4ad8" opacity="1" filter="url(#glow-breakout)"/><rect x="330" y="180" width="82" height="34" rx="8" fill="#fff" opacity="0.86" filter="url(#glow-breakout)"/><rect x="430" y="180" width="82" height="34" rx="8" fill="#ff4ad8" opacity="1" filter="url(#glow-breakout)"/><rect x="530" y="180" width="82" height="34" rx="8" fill="#fff" opacity="0.86" filter="url(#glow-breakout)"/><rect x="630" y="180" width="82" height="34" rx="8" fill="#ff4ad8" opacity="1" filter="url(#glow-breakout)"/><rect x="730" y="180" width="82" height="34" rx="8" fill="#fff" opacity="0.86" filter="url(#glow-breakout)"/><rect x="130" y="232" width="82" height="34" rx="8" fill="#ff4ad8" opacity="1" filter="url(#glow-breakout)"/><rect x="230" y="232" width="82" height="34" rx="8" fill="#fff" opacity="0.86" filter="url(#glow-breakout)"/><rect x="330" y="232" width="82" height="34" rx="8" fill="#ff4ad8" opacity="1" filter="url(#glow-breakout)"/><rect x="430" y="232" width="82" height="34" rx="8" fill="#fff" opacity="0.86" filter="url(#glow-breakout)"/><rect x="530" y="232" width="82" height="34" rx="8" fill="#ff4ad8" opacity="1" filter="url(#glow-breakout)"/><rect x="630" y="232" width="82" height="34" rx="8" fill="#fff" opacity="0.86" filter="url(#glow-breakout)"/><rect x="730" y="232" width="82" height="34" rx="8" fill="#ff4ad8" opacity="1" filter="url(#glow-breakout)"/>
    <rect x="390" y="336" width="180" height="22" rx="11" fill="#ff4ad8" filter="url(#glow-breakout)"/>
    <circle cx="510" cy="282" r="20" fill="#fff"/></g>
  <rect x="0" y="0" width="960" height="420" fill="url(#pulse-breakout)" opacity=".45"/>
</svg>