<svg xmlns="http://www.w3.org/2000/svg" width="960" height="420" viewBox="0 0 960 420" role="img" aria-label="Checkers game banner">
  
  <defs>
    <linearGradient id="g-checkers" x1="0" x2="1" y1="0" y2="1">
      <stop offset="0%" stop-color="#111827"/>
      <stop offset="58%" stop-color="#08111f"/>
      <stop offset="100%" stop-color="#f97316"/>
    </linearGradient>
    <radialGradient id="pulse-checkers" cx="30%" cy="35%" r="55%">
      <stop offset="0%" stop-color="#f97316" stop-opacity=".55"/>
      <stop offset="100%" stop-color="#f97316" stop-opacity="0"/>
    </radialGradient>
    <filter id="glow-checkers" x="-60%" y="-60%" width="220%" height="220%">
      <feGaussianBlur stdDeviation="8" result="blur"/>
      <feMerge>
        <feMergeNode in="blur"/>
        <feMergeNode in="SourceGraphic"/>
      </feMerge>
    </filter>
  </defs>
  <rect width="960" height="420" fill="url(#g-checkers)"/>
  <rect width="960" height="420" fill="url(#pulse-checkers)"/>
  <g opacity=".16">
    <path d="M0 0V420" stroke="#fff"/><path d="M44 0V420" stroke="#fff"/><path d="M88 0V420" stroke="#fff"/><path d="M132 0V420" stroke="#fff"/><path d="M176 0V420" stroke="#fff"/><path d="M220 0V420" stroke="#fff"/><path d="M264 0V420" stroke="#fff"/><path d="M308 0V420" stroke="#fff"/><path d="M352 0V420" stroke="#fff"/><path d="M396 0V420" stroke="#fff"/><path d="M440 0V420" stroke="#fff"/><path d="M484 0V420" stroke="#fff"/><path d="M528 0V420" stroke="#fff"/><path d="M572 0V420" stroke="#fff"/><path d="M616 0V420" stroke="#fff"/><path d="M660 0V420" stroke="#fff"/><path d="M704 0V420" stroke="#fff"/><path d="M748 0V420" stroke="#fff"/><path d="M792 0V420" stroke="#fff"/><path d="M836 0V420" stroke="#fff"/><path d="M880 0V420" stroke="#fff"/><path d="M924 0V420" stroke="#fff"/><path d="M968 0V420" stroke="#fff"/><path d="M1012 0V420" stroke="#fff"/><path d="M1056 0V420" stroke="#fff"/>
    <path d="M0 0H960" stroke="#fff"/><path d="M0 42H960" stroke="#fff"/><path d="M0 84H960" stroke="#fff"/><path d="M0 126H960" stroke="#fff"/><path d="M0 168H960" stroke="#fff"/><path d="M0 210H960" stroke="#fff"/><path d="M0 252H960" stroke="#fff"/><path d="M0 294H960" stroke="#fff"/><path d="M0 336H960" stroke="#fff"/><path d="M0 378H960" stroke="#fff"/><path d="M0 420H960" stroke="#fff"/><path d="M0 462H960" stroke="#fff"/>
  </g>
  <g opacity=".22">
    <circle cx="110" cy="90" r="72" fill="#fff"/>
    <circle cx="850" cy="330" r="96" fill="#f97316"/>
  </g>
  <g>
    <rect x="260" y="76" width="56" height="56" fill="#07111f" opacity=".28"/><rect x="316" y="76" width="56" height="56" fill="#fff" opacity=".28"/><rect x="372" y="76" width="56" height="56" fill="#07111f" opacity=".28"/><rect x="428" y="76" width="56" height="56" fill="#fff" opacity=".28"/><rect x="484" y="76" width="56" height="56" fill="#07111f" opacity=".28"/><rect x="540" y="76" width="56" height="56" fill="#fff" opacity=".28"/><rect x="596" y="76" width="56" height="56" fill="#07111f" opacity=".28"/><rect x="652" y="76" width="56" height="56" fill="#fff" opacity=".28"/><rect x="260" y="132" width="56" height="56" fill="#fff" opacity=".28"/><rect x="316" y="132" width="56" height="56" fill="#07111f" opacity=".28"/><rect x="372" y="132" width="56" height="56" fill="#fff" opacity=".28"/><rect x="428" y="132" width="56" height="56" fill="#07111f" opacity=".28"/><rect x="484" y="132" width="56" height="56" fill="#fff" opacity=".28"/><rect x="540" y="132" width="56" height="56" fill="#07111f" opacity=".28"/><rect x="596" y="132" width="56" height="56" fill="#fff" opacity=".28"/><rect x="652" y="132" width="56" height="56" fill="#07111f" opacity=".28"/><rect x="260" y="188" width="56" height="56" fill="#07111f" opacity=".28"/><rect x="316" y="188" width="56" height="56" fill="#fff" opacity=".28"/><rect x="372" y="188" width="56" height="56" fill="#07111f" opacity=".28"/><rect x="428" y="188" width="56" height="56" fill="#fff" opacity=".28"/><rect x="484" y="188" width="56" height="56" fill="#07111f" opacity=".28"/><rect x="540" y="188" width="56" height="56" fill="#fff" opacity=".28"/><rect x="596" y="188" width="56" height="56" fill="#07111f" opacity=".28"/><rect x="652" y="188" width="56" height="56" fill="#fff" opacity=".28"/><rect x="260" y="244" width="56" height="56" fill="#fff" opacity=".28"/><rect x="316" y="244" width="56" height="56" fill="#07111f" opacity=".28"/><rect x="372" y="244" width="56" height="56" fill="#fff" opacity=".28"/><rect x="428" y="244" width="56" height="56" fill="#07111f" opacity=".28"/><rect x="484" y="244" width="56" height="56" fill="#fff" opacity=".28"/><rect x="540" y="244" width="56" height="56" fill="#07111f" opacity=".28"/><rect x="596" y="244" width="56" height="56" fill="#fff" opacity=".28"/><rect x="652" y="244" width="56" height="56" fill="#07111f" opacity=".28"/>
    <circle cx="344" cy="134" r="34" fill="#f97316" filter="url(#glow-checkers)"/><circle cx="456" cy="246" r="34" fill="#fff" filter="url(#glow-checkers)"/><circle cx="568" cy="134" r="34" fill="#f97316" filter="url(#glow-checkers)"/><circle cx="624" cy="246" r="34" fill="#fff" filter="url(#glow-checkers)"/></g>
  <rect x="0" y="0" width="960" height="420" fill="url(#pulse-checkers)" opacity=".45"/>
</svg>